<?xml version="1.0" encoding="UTF-8"?>
<svg id="Calque_2" data-name="Calque 2" xmlns="http://www.w3.org/2000/svg" viewBox="0 0 496.74 332.83">
  <defs>
    <style>
      .cls-1 {
        fill: none;
        stroke: #1d1d1b;
        stroke-linecap: round;
        stroke-miterlimit: 10;
        stroke-width: 5px;
      }
    </style>
  </defs>
  <g id="Calque_1-2" data-name="Calque 1">
    <path class="cls-1" d="m248.37,24.43c-23.08-13.35-49.71-21.23-78.13-21.89-1.27-.03-2.55-.04-3.83-.04C105.74,2.5,52.77,35.46,24.43,84.46,10.48,108.57,2.5,136.56,2.5,166.41c0,31.9,9.12,61.68,24.89,86.87,28.97,46.28,80.4,77.05,139.02,77.05,1.28,0,2.56-.01,3.83-.04,28.42-.66,55.05-8.54,78.13-21.89-23.77-13.75-43.77-33.3-58.06-56.71-15.14-24.82-23.88-53.98-23.9-85.18v-.1c0-31.23,8.74-60.43,23.9-85.27,14.08,25.71,34.85,47.23,59.98,62.22,24.03-14.34,44.08-34.66,58.11-58.9-14.39-24.89-35.15-45.64-60.03-60.03Z"/>
    <path class="cls-1" d="m494.24,166.41c0,28.5-7.27,55.3-20.07,78.65-26.98,49.26-78.53,83.14-138.16,85.17-1.89.07-3.78.1-5.68.1-29.86,0-57.85-7.98-81.96-21.93,26.5-15.33,48.31-37.87,62.75-64.94,12.26-22.96,19.2-49.17,19.21-77.01v-.08c-.01-29.84-7.99-57.81-21.93-81.91-14.03,24.24-34.08,44.56-58.11,58.9-25.13-14.99-45.9-36.51-59.98-62.22,14.29-23.42,34.29-42.97,58.06-56.71,24.11-13.95,52.1-21.93,81.96-21.93,62.03,0,116,34.45,143.84,85.26,12.8,23.35,20.07,50.15,20.07,78.65Z"/>
    <path class="cls-1" d="m190.31,81.14c14.08,25.71,34.85,47.23,59.98,62.22,24.03-14.34,44.08-34.66,58.11-58.9,13.94,24.1,21.92,52.07,21.93,81.91,1.27.03,2.55.04,3.83.04,59.3,0,111.24-31.48,140.01-78.65C446.33,36.95,392.36,2.5,330.33,2.5c-29.86,0-57.85,7.98-81.96,21.93-23.08-13.35-49.71-21.23-78.13-21.89"/>
    <path class="cls-1" d="m330.33,2.5c-29.86,0-57.85,7.98-81.96,21.93-23.08-13.35-49.71-21.23-78.13-21.89-1.27-.03-2.55-.04-3.83-.04C105.74,2.5,52.77,35.46,24.43,84.46c28.34,48.99,81.31,81.95,141.98,81.95,0-31.23,8.74-60.43,23.9-85.27,14.08,25.71,34.85,47.23,59.98,62.22,24.03-14.34,44.08-34.66,58.11-58.9"/>
    <path class="cls-1" d="m248.37,308.4c-23.08,13.35-49.71,21.23-78.13,21.89-1.27.03-2.55.04-3.83.04-58.62,0-110.05-30.77-139.02-77.05,26.74-50.12,78.75-84.72,139.02-86.77.02,31.2,8.76,60.36,23.9,85.18,14.29,23.41,34.29,42.96,58.06,56.71Z"/>
    <path class="cls-1" d="m311.12,243.46c-14.44,27.07-36.25,49.61-62.75,64.94,24.11,13.95,52.1,21.93,81.96,21.93,1.9,0,3.79-.03,5.68-.1"/>
    <path class="cls-1" d="m190.31,251.69c14.29,23.41,34.29,42.96,58.06,56.71-23.08,13.35-49.71,21.23-78.13,21.89"/>
    <path class="cls-1" d="m474.17,245.06c-26.98,49.26-78.53,83.14-138.16,85.17-1.89.07-3.78.1-5.68.1-29.86,0-57.85-7.98-81.96-21.93,26.5-15.33,48.31-37.87,62.75-64.94,12.26-22.96,19.2-49.17,19.21-77.01,1.27-.03,2.55-.04,3.83-.04,59.3,0,111.24,31.49,140.01,78.65Z"/>
  </g>
</svg>